HIERARCHY
ROOT Pelvis
{
	OFFSET 0.000000 0.000000 0.000000
	CHANNELS 6 Xposition Yposition Zposition Xrotation Yrotation Zrotation
	JOINT LeftUpLeg_virtual
	{
		OFFSET 0.000000 0.000000 0.000000
		CHANNELS 3 Xrotation Yrotation Zrotation
		JOINT LeftUpLeg
		{
			OFFSET 18.735201 -5.666702 -4.541200
			CHANNELS 3 Xrotation Yrotation Zrotation
			JOINT LeftLeg
			{
				OFFSET -0.021200 -31.938179 0.493100
				CHANNELS 3 Xrotation Yrotation Zrotation
				JOINT LeftFoot
				{
					OFFSET 0.021200 -31.938179 -4.336299
					CHANNELS 3 Xrotation Yrotation Zrotation
					JOINT LeftToeBase
					{
						OFFSET 0.943001 -26.722000 15.023500
						CHANNELS 3 Xrotation Yrotation Zrotation
						End Site
						{
							OFFSET 0 0 0
						}
					}
				}
			}
		}
	}
	JOINT RightUpLeg_virtual
	{
		OFFSET 0.000000 0.000000 0.000000
		CHANNELS 3 Xrotation Yrotation Zrotation
		JOINT RightUpLeg
		{
			OFFSET -18.735201 -5.666702 -4.541200
			CHANNELS 3 Xrotation Yrotation Zrotation
			JOINT RightLeg
			{
				OFFSET 0.018946 -31.938133 0.493100
				CHANNELS 3 Xrotation Yrotation Zrotation
				JOINT RightFoot
				{
					OFFSET -0.018946 -31.938126 -4.336299
					CHANNELS 3 Xrotation Yrotation Zrotation
					JOINT RightToeBase
					{
						OFFSET -0.943001 -26.722004 15.023500
						CHANNELS 3 Xrotation Yrotation Zrotation
						End Site
						{
							OFFSET 0 0 0
						}
					}
				}
			}
		}
	}
	JOINT Hips_virtual
	{
		OFFSET 0.000000 0.000000 0.000000
		CHANNELS 3 Xrotation Yrotation Zrotation
		JOINT Hips
		{
			OFFSET -0.000000 -0.000000 -0.000000
			CHANNELS 3 Xrotation Yrotation Zrotation
			JOINT Spine
			{
				OFFSET 0.000000 10.199997 -0.299500
				CHANNELS 3 Xrotation Yrotation Zrotation
				JOINT Spine1
				{
					OFFSET 0.000000 11.900002 -1.516600
					CHANNELS 3 Xrotation Yrotation Zrotation
					JOINT Spine2
					{
						OFFSET 0.000000 13.600006 -2.842500
						CHANNELS 3 Xrotation Yrotation Zrotation
						JOINT Neck_virtual
						{
							OFFSET 0.000000 0.000000 0.000000
							CHANNELS 3 Xrotation Yrotation Zrotation
							JOINT Neck
							{
								OFFSET 0.000000 9.624100 -2.890100
								CHANNELS 3 Xrotation Yrotation Zrotation
								JOINT Head
								{
									OFFSET 0.000000 14.068802 -1.351900
									CHANNELS 3 Xrotation Yrotation Zrotation
									End Site
									{
										OFFSET 0 0 0
									}
								}
							}
						}
						JOINT LeftShoulder_virtual
						{
							OFFSET 0.000000 0.000000 0.000000
							CHANNELS 3 Xrotation Yrotation Zrotation
							JOINT LeftShoulder
							{
								OFFSET 15.263000 10.923401 -0.547700
								CHANNELS 3 Xrotation Yrotation Zrotation
								JOINT LeftArm
								{
									OFFSET 25.438599 -2.830597 -13.032500
									CHANNELS 3 Xrotation Yrotation Zrotation
									JOINT LeftForeArm
									{
										OFFSET 29.960503 0.000000 0.000000
										CHANNELS 3 Xrotation Yrotation Zrotation
										JOINT LeftHand
										{
											OFFSET 27.849251 0.000000 0.000000
											CHANNELS 3 Xrotation Yrotation Zrotation
											End Site
											{
												OFFSET 0 0 0
											}
										}
									}
								}
							}
						}
						JOINT RightShoulder_virtual
						{
							OFFSET 0.000000 0.000000 0.000000
							CHANNELS 3 Xrotation Yrotation Zrotation
							JOINT RightShoulder
							{
								OFFSET -15.263000 10.923401 -0.547700
								CHANNELS 3 Xrotation Yrotation Zrotation
								JOINT RightArm
								{
									OFFSET -25.438599 -2.830597 -13.032500
									CHANNELS 3 Xrotation Yrotation Zrotation
									JOINT RightForeArm
									{
										OFFSET -29.960503 0.000000 0.000000
										CHANNELS 3 Xrotation Yrotation Zrotation
										JOINT RightHand
										{
											OFFSET -27.849251 0.000000 0.000000
											CHANNELS 3 Xrotation Yrotation Zrotation
											End Site
											{
												OFFSET 0 0 0
											}
										}
									}
								}
							}
						}
					}
				}
			}
		}
	}
}
MOTION
Frames: 13
Frame Time: 0.03333333
2.927055 84.990448 3.676201 0.000000 0.000000 0.000000 0.002546 -13.613916 4.768179 -44.467055 4.011698 22.381010 52.457810 -0.317211 -2.647492 0.888868 0.523006 -10.083448 0.000000 0.000000 0.000000 8.219828 -0.165829 -7.970139 -20.300791 -3.706543 -23.582101 39.024911 2.572632 5.028766 -13.825505 -4.055310 20.242167 0.000000 0.000000 0.000000 5.583047 0.105934 0.872099 1.999064 -4.676178 -0.265873 11.980001 2.148204 -1.728110 7.152681 0.611155 -1.291862 0.000000 0.000000 0.000000 2.693396 1.296665 -1.187616 0.965866 -0.630093 0.291386 0.000000 0.000000 0.000000 7.538395 -1.463394 -0.552641 5.842855 -27.064862 8.188177 -57.602387 -28.040278 -21.521286 -9.862925 -61.376046 0.705564 0.000000 0.000000 0.000000 4.413438 2.534400 -2.388990 7.227856 20.813099 -16.644343 -16.910529 35.123360 5.947815 -0.840595 40.498828 -2.200207 0.000000 0.000000 0.000000 
2.974020 84.790421 3.640259 0.000000 0.000000 0.000000 -0.042223 -13.824737 4.821624 -44.572213 3.927874 22.433046 52.651261 -0.428246 -2.598311 1.039988 0.375612 -10.095185 0.000000 0.000000 0.000000 8.124802 -0.391736 -8.000772 -20.402325 -3.741266 -23.632772 39.097383 2.482196 5.104620 -13.764640 -4.169071 20.290983 0.000000 0.000000 0.000000 5.721559 0.056568 0.893984 2.041143 -4.590686 -0.468838 11.925214 2.110247 -1.723097 7.167758 0.581282 -1.279384 0.000000 0.000000 0.000000 2.464431 1.316891 -1.102162 0.927009 -0.666256 0.320534 0.000000 0.000000 0.000000 7.411940 -1.450437 -0.640360 5.657754 -27.360582 7.959906 -57.359027 -28.319115 -20.844062 -9.364761 -60.849349 0.991970 0.000000 0.000000 0.000000 4.247701 2.459244 -2.341754 7.264089 20.769145 -16.962865 -16.303685 35.609867 5.903234 -0.738272 39.701147 -2.003713 0.000000 0.000000 0.000000 
3.021212 84.569954 3.640625 0.000000 0.000000 0.000000 -0.081194 -14.042218 4.900666 -44.665025 3.832365 22.505367 52.835290 -0.519502 -2.542554 1.184625 0.247809 -10.086842 0.000000 0.000000 0.000000 8.072075 -0.546841 -8.012976 -20.459089 -3.766329 -23.661596 39.195444 2.420617 5.157655 -13.691282 -4.243657 20.326684 0.000000 0.000000 0.000000 5.807660 0.009338 0.920638 1.965304 -4.461025 -0.610457 11.887633 2.092526 -1.735358 7.183511 0.565928 -1.275532 0.000000 0.000000 0.000000 2.305619 1.339487 -1.027233 0.908696 -0.691595 0.349963 0.000000 0.000000 0.000000 7.405683 -1.395249 -0.753970 5.527603 -27.418862 7.623816 -57.049760 -28.466055 -20.279470 -8.913191 -60.342577 1.217283 0.000000 0.000000 0.000000 4.124414 2.390157 -2.293399 7.300196 20.697071 -17.205303 -15.740733 36.063792 5.896079 -0.659241 39.118351 -1.796374 0.000000 0.000000 0.000000 
3.075081 84.338753 3.671144 0.000000 0.000000 0.000000 -0.102722 -14.215749 4.995625 -44.736110 3.745302 22.594797 53.039728 -0.586895 -2.484902 1.347507 0.142062 -10.055588 0.000000 0.000000 0.000000 8.047868 -0.589673 -8.015428 -20.481613 -3.771692 -23.666310 39.307609 2.392237 5.193752 -13.612102 -4.278897 20.360524 0.000000 0.000000 0.000000 5.837960 -0.051971 0.941264 1.784595 -4.368601 -0.735839 11.863309 2.088272 -1.754184 7.197191 0.562283 -1.274561 0.000000 0.000000 0.000000 2.199608 1.366266 -0.970071 0.910381 -0.707244 0.373914 0.000000 0.000000 0.000000 7.402234 -1.337720 -0.852231 5.414184 -27.422827 7.345081 -56.692711 -28.553273 -19.809342 -8.493936 -59.870085 1.401521 0.000000 0.000000 0.000000 4.030673 2.335644 -2.258070 7.345185 20.640471 -17.449827 -15.326224 36.504383 5.927863 -0.608951 38.716897 -1.592905 0.000000 0.000000 0.000000 
3.131615 84.114227 3.715801 0.000000 0.000000 0.000000 -0.125046 -14.378463 5.091280 -44.813725 3.660709 22.687885 53.270175 -0.636355 -2.421210 1.520936 0.051253 -10.000617 0.000000 0.000000 0.000000 8.038085 -0.559994 -8.036865 -20.486961 -3.756914 -23.682004 39.411564 2.382551 5.204730 -13.536699 -4.284009 20.370744 0.000000 0.000000 0.000000 5.831166 -0.110172 0.945132 1.534176 -4.325575 -0.899355 11.861493 2.100912 -1.788247 7.215662 0.571454 -1.281543 0.000000 0.000000 0.000000 2.130874 1.399759 -0.934863 0.928112 -0.714997 0.389021 0.000000 0.000000 0.000000 7.390672 -1.279486 -0.932326 5.317398 -27.398783 7.137663 -56.358449 -28.616940 -19.432172 -8.127428 -59.483216 1.545986 0.000000 0.000000 0.000000 3.966218 2.302229 -2.235956 7.404744 20.626697 -17.699173 -15.073046 36.955182 6.019169 -0.578955 38.483717 -1.396135 0.000000 0.000000 0.000000 
3.173446 83.910461 3.779495 0.000000 0.000000 0.000000 -0.151816 -14.515747 5.171920 -44.895335 3.587517 22.769265 53.490367 -0.668444 -2.360779 1.682791 -0.019428 -9.936964 0.000000 0.000000 0.000000 8.029706 -0.494539 -8.074592 -20.493839 -3.729009 -23.710971 39.497618 2.387196 5.197568 -13.475983 -4.268118 20.363120 0.000000 0.000000 0.000000 5.787469 -0.147471 0.933693 1.236347 -4.279971 -1.081939 11.903090 2.111020 -1.823831 7.251217 0.583775 -1.288697 0.000000 0.000000 0.000000 2.098062 1.431714 -0.918537 0.955278 -0.714249 0.395322 0.000000 0.000000 0.000000 7.376340 -1.233449 -0.994120 5.230091 -27.365389 6.986476 -56.118248 -28.674507 -19.183213 -7.851316 -59.232930 1.623575 0.000000 0.000000 0.000000 3.930059 2.281347 -2.222341 7.473335 20.623367 -17.937234 -14.876017 37.317483 6.125679 -0.561269 38.385175 -1.212654 0.000000 0.000000 0.000000 
3.198990 83.741646 3.846745 0.000000 0.000000 0.000000 -0.179899 -14.579133 5.212129 -44.963911 3.548621 22.815187 53.653598 -0.663490 -2.314913 1.809634 -0.042933 -9.867450 0.000000 0.000000 0.000000 8.032213 -0.415831 -8.109859 -20.488078 -3.700843 -23.736395 39.567839 2.407086 5.188546 -13.426841 -4.238710 20.362594 0.000000 0.000000 0.000000 5.720558 -0.168002 0.913792 0.943137 -4.240900 -1.253105 11.984667 2.132807 -1.859784 7.303016 0.605405 -1.294919 0.000000 0.000000 0.000000 2.094226 1.468701 -0.913844 0.987792 -0.704589 0.396626 0.000000 0.000000 0.000000 7.362611 -1.194940 -1.041188 5.152724 -27.338677 6.886192 -55.956215 -28.715714 -19.015168 -7.653946 -59.044677 1.652353 0.000000 0.000000 0.000000 3.913359 2.280539 -2.211779 7.547044 20.667546 -18.149655 -14.781731 37.585322 6.249555 -0.579713 38.328812 -1.034737 0.000000 0.000000 0.000000 
3.217577 83.618042 3.929674 0.000000 0.000000 0.000000 -0.200466 -14.609404 5.208883 -45.007357 3.538018 22.817707 53.753777 -0.645125 -2.281821 1.894653 -0.044175 -9.807190 0.000000 0.000000 0.000000 8.048747 -0.387355 -8.129762 -20.460440 -3.693765 -23.752008 39.624895 2.417763 5.184361 -13.383057 -4.220655 20.363348 0.000000 0.000000 0.000000 5.640792 -0.166651 0.885934 0.660034 -4.223133 -1.404517 12.081150 2.173938 -1.890493 7.357372 0.639917 -1.298361 0.000000 0.000000 0.000000 2.101513 1.512632 -0.909026 1.020018 -0.689259 0.399929 0.000000 0.000000 0.000000 7.350090 -1.154537 -1.076849 5.087942 -27.308507 6.834893 -55.854224 -28.722827 -18.884329 -7.514204 -58.864940 1.655861 0.000000 0.000000 0.000000 3.904523 2.301674 -2.202267 7.620903 20.774854 -18.334424 -14.786480 37.811306 6.418884 -0.627440 38.291174 -0.849764 0.000000 0.000000 0.000000 
3.230277 83.529633 4.003201 0.000000 0.000000 0.000000 -0.205219 -14.612553 5.198540 -45.019727 3.540811 22.810535 53.818564 -0.610201 -2.245649 1.960371 -0.028933 -9.729385 0.000000 0.000000 0.000000 8.074065 -0.379755 -8.121378 -20.415017 -3.701168 -23.739342 39.681459 2.429181 5.191291 -13.330762 -4.206488 20.383135 0.000000 0.000000 0.000000 5.555827 -0.163324 0.856517 0.393109 -4.233786 -1.532742 12.178115 2.223716 -1.915453 7.408407 0.680733 -1.299157 0.000000 0.000000 0.000000 2.101043 1.560863 -0.898280 1.043716 -0.671176 0.407860 0.000000 0.000000 0.000000 7.333650 -1.112958 -1.105041 5.029588 -27.281990 6.819985 -55.814219 -28.697832 -18.793464 -7.434509 -58.693100 1.626284 0.000000 0.000000 0.000000 3.890165 2.338233 -2.193555 7.679986 20.923308 -18.492947 -14.841221 38.004276 6.638325 -0.688588 38.259390 -0.652308 0.000000 0.000000 0.000000 
3.237639 83.464554 4.066854 0.000000 0.000000 0.000000 -0.199960 -14.603115 5.192429 -45.013040 3.547153 22.805044 53.870375 -0.567278 -2.205293 2.020640 -0.007295 -9.638813 0.000000 0.000000 0.000000 8.114582 -0.361840 -8.074957 -20.342854 -3.718283 -23.683889 39.750277 2.445623 5.210537 -13.259860 -4.191858 20.427561 0.000000 0.000000 0.000000 5.476331 -0.163532 0.825545 0.168961 -4.267866 -1.653209 12.266843 2.275544 -1.932705 7.453561 0.723701 -1.296972 0.000000 0.000000 0.000000 2.088801 1.609270 -0.879860 1.057577 -0.653998 0.421364 0.000000 0.000000 0.000000 7.320633 -1.069785 -1.128553 4.984622 -27.259266 6.836689 -55.798827 -28.648627 -18.717526 -7.383180 -58.520275 1.586202 0.000000 0.000000 0.000000 3.872533 2.383976 -2.186745 7.725712 21.086619 -18.631279 -14.927559 38.141648 6.890054 -0.759785 38.190122 -0.443738 0.000000 0.000000 0.000000 
3.241290 83.421875 4.111492 0.000000 0.000000 0.000000 -0.183776 -14.585975 5.182727 -44.987396 3.559734 22.793945 53.907207 -0.528930 -2.164539 2.070715 0.009883 -9.550912 0.000000 0.000000 0.000000 8.149536 -0.324379 -8.045975 -20.278620 -3.724664 -23.643987 39.782051 2.462918 5.213152 -13.214200 -4.169964 20.446426 0.000000 0.000000 0.000000 5.415435 -0.151142 0.794665 0.012978 -4.279317 -1.761210 12.339713 2.328736 -1.938463 7.490183 0.767453 -1.290392 0.000000 0.000000 0.000000 2.061657 1.655574 -0.854344 1.060618 -0.639409 0.440196 0.000000 0.000000 0.000000 7.310562 -1.024556 -1.149864 4.950996 -27.240598 6.874126 -55.786803 -28.569542 -18.656459 -7.348918 -58.328258 1.536664 0.000000 0.000000 0.000000 3.845189 2.433969 -2.180638 7.751376 21.251456 -18.745432 -15.042793 38.232083 7.177719 -0.840487 38.084015 -0.221251 0.000000 0.000000 0.000000 
3.238279 83.395561 4.120977 0.000000 0.000000 0.000000 -0.153232 -14.561892 5.172734 -44.937778 3.577816 22.779605 53.919364 -0.496845 -2.123126 2.104438 0.021052 -9.466728 0.000000 0.000000 0.000000 8.176974 -0.275891 -8.037558 -20.227914 -3.721331 -23.624912 39.790418 2.467858 5.194420 -13.186763 -4.149839 20.423792 0.000000 0.000000 0.000000 5.379890 -0.125418 0.765612 -0.075531 -4.259595 -1.866914 12.394934 2.379797 -1.931613 7.517561 0.810773 -1.279580 0.000000 0.000000 0.000000 2.023964 1.697303 -0.825425 1.055142 -0.628287 0.462255 0.000000 0.000000 0.000000 7.300973 -0.979163 -1.170455 4.926917 -27.231373 6.930572 -55.771654 -28.463087 -18.597582 -7.329747 -58.100724 1.480235 0.000000 0.000000 0.000000 3.809252 2.482846 -2.175576 7.759058 21.405121 -18.841032 -15.179165 38.280891 7.486428 -0.928060 37.940407 0.011931 0.000000 0.000000 0.000000 
3.227498 83.382172 4.102369 0.000000 0.000000 0.000000 -0.114282 -14.553108 5.150386 -44.875784 3.600016 22.750918 53.907193 -0.475514 -2.086519 2.112860 0.024873 -9.397930 0.000000 0.000000 0.000000 8.209312 -0.230886 -8.041293 -20.174588 -3.717495 -23.620217 39.790763 2.453824 5.161964 -13.166856 -4.140606 20.366985 0.000000 0.000000 0.000000 5.369552 -0.090023 0.738369 -0.108278 -4.214093 -1.976143 12.426789 2.422095 -1.910837 7.534748 0.849939 -1.264216 0.000000 0.000000 0.000000 1.976386 1.733226 -0.796305 1.042551 -0.621041 0.485505 0.000000 0.000000 0.000000 7.290087 -0.935957 -1.191122 4.912092 -27.233168 7.002212 -55.738387 -28.327685 -18.523692 -7.311770 -57.827011 1.427928 0.000000 0.000000 0.000000 3.763034 2.526769 -2.170372 7.748489 21.534774 -18.916153 -15.336285 38.281431 7.815967 -1.021789 37.757484 0.256236 0.000000 0.000000 0.000000 
